<mxfile host="Electron" modified="2024-01-07T18:15:53.141Z" agent="Mozilla/5.0 (X11; Linux x86_64) AppleWebKit/537.36 (KHTML, like Gecko) draw.io/22.1.16 Chrome/120.0.6099.109 Electron/28.1.0 Safari/537.36" etag="3LGUvvApnYbYPkq9g5Tc" version="22.1.16" type="device">
  <diagram name="Page-1" id="rQWlZVBiJF3qtHsCXE85">
    <mxGraphModel dx="736" dy="456" grid="1" gridSize="10" guides="1" tooltips="1" connect="1" arrows="1" fold="1" page="1" pageScale="1" pageWidth="850" pageHeight="1100" math="0" shadow="0">
      <root>
        <mxCell id="0" />
        <mxCell id="1" parent="0" />
        <mxCell id="xWf73BT7jqw_lKePqx2_-5" value="" style="whiteSpace=wrap;html=1;fillColor=#fff2cc;strokeColor=#d6b656;" vertex="1" parent="1">
          <mxGeometry x="70" y="230" width="400" height="240" as="geometry" />
        </mxCell>
        <mxCell id="xWf73BT7jqw_lKePqx2_-11" style="edgeStyle=orthogonalEdgeStyle;rounded=0;orthogonalLoop=1;jettySize=auto;html=1;exitX=0.5;exitY=1;exitDx=0;exitDy=0;" edge="1" parent="1" source="xWf73BT7jqw_lKePqx2_-1" target="xWf73BT7jqw_lKePqx2_-4">
          <mxGeometry relative="1" as="geometry" />
        </mxCell>
        <mxCell id="xWf73BT7jqw_lKePqx2_-12" style="edgeStyle=orthogonalEdgeStyle;rounded=0;orthogonalLoop=1;jettySize=auto;html=1;exitX=0.5;exitY=1;exitDx=0;exitDy=0;entryX=0.5;entryY=0;entryDx=0;entryDy=0;" edge="1" parent="1" source="xWf73BT7jqw_lKePqx2_-1" target="xWf73BT7jqw_lKePqx2_-2">
          <mxGeometry relative="1" as="geometry" />
        </mxCell>
        <mxCell id="xWf73BT7jqw_lKePqx2_-13" style="edgeStyle=orthogonalEdgeStyle;rounded=0;orthogonalLoop=1;jettySize=auto;html=1;exitX=0.5;exitY=1;exitDx=0;exitDy=0;entryX=0.5;entryY=0;entryDx=0;entryDy=0;" edge="1" parent="1" source="xWf73BT7jqw_lKePqx2_-1" target="xWf73BT7jqw_lKePqx2_-3">
          <mxGeometry relative="1" as="geometry" />
        </mxCell>
        <mxCell id="xWf73BT7jqw_lKePqx2_-14" style="edgeStyle=orthogonalEdgeStyle;rounded=0;orthogonalLoop=1;jettySize=auto;html=1;exitX=1;exitY=0.5;exitDx=0;exitDy=0;entryX=0.5;entryY=0;entryDx=0;entryDy=0;" edge="1" parent="1" source="xWf73BT7jqw_lKePqx2_-1" target="xWf73BT7jqw_lKePqx2_-7">
          <mxGeometry relative="1" as="geometry" />
        </mxCell>
        <mxCell id="xWf73BT7jqw_lKePqx2_-1" value="main.py&lt;br&gt;- Start the program&lt;br&gt;- Connect to gamepad&lt;br&gt;- Send status message" style="rounded=0;whiteSpace=wrap;html=1;fillColor=#d5e8d4;strokeColor=#82b366;" vertex="1" parent="1">
          <mxGeometry x="205" y="260" width="131" height="60" as="geometry" />
        </mxCell>
        <mxCell id="xWf73BT7jqw_lKePqx2_-2" value="Thread 1:&lt;br&gt;Left motor drive" style="whiteSpace=wrap;html=1;fillColor=#ffe6cc;strokeColor=#d79b00;" vertex="1" parent="1">
          <mxGeometry x="211" y="360" width="120" height="60" as="geometry" />
        </mxCell>
        <mxCell id="xWf73BT7jqw_lKePqx2_-3" value="Thread 2:&lt;br&gt;Right motor drive" style="whiteSpace=wrap;html=1;fillColor=#ffe6cc;strokeColor=#d79b00;" vertex="1" parent="1">
          <mxGeometry x="341" y="360" width="120" height="60" as="geometry" />
        </mxCell>
        <mxCell id="xWf73BT7jqw_lKePqx2_-15" style="edgeStyle=orthogonalEdgeStyle;rounded=0;orthogonalLoop=1;jettySize=auto;html=1;exitX=0.5;exitY=1;exitDx=0;exitDy=0;entryX=0.25;entryY=1;entryDx=0;entryDy=0;" edge="1" parent="1" source="xWf73BT7jqw_lKePqx2_-4" target="xWf73BT7jqw_lKePqx2_-2">
          <mxGeometry relative="1" as="geometry" />
        </mxCell>
        <mxCell id="xWf73BT7jqw_lKePqx2_-16" style="edgeStyle=orthogonalEdgeStyle;rounded=0;orthogonalLoop=1;jettySize=auto;html=1;exitX=0.5;exitY=1;exitDx=0;exitDy=0;entryX=0.25;entryY=1;entryDx=0;entryDy=0;" edge="1" parent="1" source="xWf73BT7jqw_lKePqx2_-4" target="xWf73BT7jqw_lKePqx2_-3">
          <mxGeometry relative="1" as="geometry">
            <Array as="points">
              <mxPoint x="140" y="450" />
              <mxPoint x="371" y="450" />
            </Array>
          </mxGeometry>
        </mxCell>
        <mxCell id="xWf73BT7jqw_lKePqx2_-4" value="While loop:&lt;br&gt;Listen controller input&lt;br&gt;Drive the servos" style="whiteSpace=wrap;html=1;fillColor=#ffe6cc;strokeColor=#d79b00;" vertex="1" parent="1">
          <mxGeometry x="80" y="360" width="120" height="60" as="geometry" />
        </mxCell>
        <mxCell id="xWf73BT7jqw_lKePqx2_-7" value="" style="whiteSpace=wrap;html=1;fillColor=#fff2cc;strokeColor=#d6b656;" vertex="1" parent="1">
          <mxGeometry x="480" y="320" width="190" height="150" as="geometry" />
        </mxCell>
        <mxCell id="xWf73BT7jqw_lKePqx2_-8" value="camera.py&lt;br&gt;video streaming part" style="rounded=0;whiteSpace=wrap;html=1;fillColor=#ffe6cc;strokeColor=#d79b00;" vertex="1" parent="1">
          <mxGeometry x="490" y="360" width="120" height="60" as="geometry" />
        </mxCell>
        <mxCell id="xWf73BT7jqw_lKePqx2_-9" value="&lt;b&gt;Process 1:&lt;/b&gt;" style="text;html=1;align=center;verticalAlign=middle;resizable=0;points=[];autosize=1;strokeColor=none;fillColor=none;" vertex="1" parent="1">
          <mxGeometry x="70" y="230" width="80" height="30" as="geometry" />
        </mxCell>
        <mxCell id="xWf73BT7jqw_lKePqx2_-10" value="&lt;b&gt;Process 2:&lt;/b&gt;" style="text;html=1;align=center;verticalAlign=middle;resizable=0;points=[];autosize=1;strokeColor=none;fillColor=none;" vertex="1" parent="1">
          <mxGeometry x="480" y="320" width="80" height="30" as="geometry" />
        </mxCell>
        <mxCell id="xWf73BT7jqw_lKePqx2_-17" value="&lt;font style=&quot;font-size: 10px;&quot;&gt;Speed &amp;amp; direction&lt;/font&gt;" style="text;html=1;align=center;verticalAlign=middle;resizable=0;points=[];autosize=1;strokeColor=none;fillColor=none;" vertex="1" parent="1">
          <mxGeometry x="144" y="430" width="100" height="30" as="geometry" />
        </mxCell>
      </root>
    </mxGraphModel>
  </diagram>
</mxfile>
